<svg width="1440" height="758" viewBox="0 0 1440 758" fill="none" xmlns="http://www.w3.org/2000/svg">
<g clip-path="url(#clip0_54_30)">
<rect width="1440" height="789" fill="#FFF5E1"/>
<path d="M121.279 62.4971L125.111 58.6747C127.037 56.7489 129.047 54.9469 131.132 53.2699C142.101 52.1259 152.077 53.9839 166.624 58.8713M83.9575 99.8191L87.7894 95.9967C89.7151 94.0709 91.7254 92.2689 93.8095 90.592C104.779 89.4479 114.755 91.3059 129.302 96.1933M46.6355 137.141L50.4674 133.319C52.393 131.393 54.4034 129.591 56.4875 127.914C67.457 126.77 77.4332 128.628 91.9797 133.515M9.31834 174.468L13.1454 170.641C15.0683 168.718 17.0756 166.918 19.1566 165.243C30.1262 164.09 40.1048 165.948 54.6577 170.837M213.114 17.5907C226.173 30.6489 226.173 51.8204 213.114 64.8785L42.8784 235.114C29.8203 248.173 8.64882 248.173 -4.40934 235.114C-17.4675 222.056 -17.4675 200.885 -4.40934 187.827L165.827 17.5907C178.885 4.53259 200.056 4.53259 213.114 17.5907Z" stroke="#F0BB78" stroke-opacity="0.1" stroke-width="7" stroke-linejoin="round"/>
<path d="M705.169 616.853L700.864 613.572C698.696 611.924 696.639 610.176 694.696 608.337C692.081 597.623 692.574 587.487 695.452 572.414M747.19 648.792L742.885 645.511C740.717 643.863 738.66 642.115 736.717 640.276C734.102 629.562 734.595 619.426 737.473 604.353M789.211 680.731L784.906 677.45C782.738 675.802 780.681 674.054 778.738 672.215C776.123 661.501 776.616 651.365 779.494 636.292M831.236 712.664L826.927 709.389C824.762 707.743 822.708 705.998 820.767 704.162C818.143 693.449 818.636 683.311 821.515 668.231M648.27 531.925C659.445 517.223 680.422 514.363 695.125 525.538L886.794 671.22C901.497 682.395 904.356 703.372 893.182 718.074C882.007 732.777 861.029 735.636 846.327 724.462L654.657 578.779C639.955 567.605 637.096 546.627 648.27 531.925Z" stroke="#F0BB78" stroke-opacity="0.1" stroke-width="7" stroke-linejoin="round"/>
<g clip-path="url(#clip1_54_30)">
<path d="M1367.25 272.019L1365.01 267.09C1363.89 264.611 1362.9 262.097 1362.06 259.557C1364.84 248.883 1370.08 240.192 1379.76 228.283M1389.11 320.059L1386.88 315.13C1385.75 312.651 1384.77 310.137 1383.93 307.597C1386.7 296.923 1391.94 288.232 1401.62 276.323M1410.98 368.099L1408.74 363.17C1407.61 360.692 1406.63 358.177 1405.79 355.637C1408.57 344.963 1413.81 336.272 1423.48 324.363M1432.85 416.136L1430.61 411.21C1429.48 408.735 1428.5 406.224 1427.66 403.688C1430.43 393.011 1435.67 384.317 1445.35 372.403M1357.4 170.268C1374.21 162.619 1394.04 170.043 1401.69 186.851L1501.41 405.975C1509.06 422.784 1501.64 442.61 1484.83 450.26C1468.02 457.91 1448.19 450.485 1440.54 433.677L1340.82 214.553C1333.17 197.745 1340.59 177.918 1357.4 170.268Z" stroke="#F0BB78" stroke-opacity="0.1" stroke-width="7" stroke-linejoin="round"/>
</g>
<path d="M1206.13 658.833C1212.21 636.836 1224.32 614.394 1241.48 592.873L1243.74 592.252L1262.31 587.264M1218.26 602.62C1220 601.755 1221.76 600.922 1223.54 600.119C1278.54 607.728 1324.84 627.388 1353.78 655.341M1297.47 577.844L1305.89 575.596C1310.35 574.402 1314.82 573.425 1319.27 572.66C1344.48 582.682 1365.85 595.926 1381.9 611.736M1258.39 680.901C1269.28 643.153 1298.53 603.962 1340.86 570.421C1343.08 570.299 1345.31 570.234 1347.52 570.219M1452.68 634.996L1460.76 649.264C1478.05 679.828 1467.29 718.621 1436.72 735.911C1432.05 738.555 1427.06 740.596 1421.87 741.986L1232.49 792.737C1198.57 801.826 1163.7 781.699 1154.61 747.78C1153.22 742.593 1152.5 737.25 1152.45 731.88L1152.3 715.49C1151.8 657.498 1190.57 606.501 1246.59 591.488L1309.03 574.756C1365.05 559.747 1424.13 584.52 1452.68 634.996Z" stroke="#F0BB78" stroke-opacity="0.1" stroke-width="7" stroke-linejoin="round"/>
<g clip-path="url(#clip2_54_30)">
<path d="M299.48 797.553L299.448 798.357C321.308 794.469 343.092 785.432 363.057 771.605L366.402 769.231C425.096 726.559 448.12 638.906 408.319 584.071C372.715 538.374 326.16 527.751 287.736 555.687C266.77 570.929 254.523 594.754 254.052 619.855M299.48 797.553L299.783 782.329L299.908 758.861M299.48 797.553L299.098 806.81L298.725 812.007C298.68 812.5 298.632 812.965 298.584 813.401C297.235 825.517 286.284 834.415 274.124 833.277C261.963 832.139 253.198 821.395 254.546 809.279L254.847 805.541L255.096 800.248L255.398 788.152M299.908 758.861L299.879 753.385C313.725 749.843 327.609 743.287 340.643 733.811C380.747 704.655 396.697 643.943 372.689 610.845C351.074 583.116 330.838 578.498 313.49 591.111C304.773 597.448 299.431 607.023 298.494 617.343L298.362 620.251L299.756 724.581L299.908 758.861ZM254.052 619.855L254.211 616.1L254.296 615.029C231.557 609.595 207.143 614.279 187.525 628.542C149.101 656.477 144.847 704.038 177.633 752.401C198.088 779.165 225.513 794.371 255.123 799.006L255.398 788.152M254.052 619.855L254.634 661.605L245.665 658.563L242.858 657.792C232.752 655.5 221.996 657.629 213.279 663.966C195.931 676.578 194.082 697.252 213.792 726.365C224.838 740.796 239.383 749.949 255.579 754.024L255.577 768.609M254.052 619.855L255.131 695.103L255.562 744.083L255.577 768.609M255.577 768.609L255.398 788.152M426.227 671.738L430.231 672.922L436.724 674.666L438.991 675.184C450.932 677.638 458.449 689.29 455.781 701.209C453.113 713.127 441.271 720.8 429.33 718.346C428.9 718.258 428.443 718.159 427.96 718.051L422.902 716.803L416.44 715.022L412.493 713.857C419.126 700.406 423.787 686.126 426.227 671.738ZM298.472 629.752L316.859 636.008L372.352 654.623L383.527 658.24C382.112 672.44 377.415 687.098 369.915 700.428L344.478 692.067L299.098 676.676L298.472 629.752Z" stroke="#F0BB78" stroke-opacity="0.1" stroke-width="7" stroke-linejoin="round"/>
</g>
<path d="M87.7435 336.424L92.9291 336.047C116.653 334.326 140.263 340.653 159.948 354.005L164.251 356.924C176.42 365.178 179.594 381.735 171.339 393.905C170.501 395.14 169.561 396.303 168.528 397.38C154.152 412.382 143.132 430.271 136.2 449.859L128.225 472.396C104.311 477.092 79.5687 470.463 61.2063 454.438L65.5682 430.934C69.3594 410.504 68.7604 389.502 63.8109 369.321C60.3082 355.04 69.0462 340.623 83.3277 337.12C84.7775 336.765 86.2547 336.532 87.7435 336.424ZM0.985191 432.941L22.9344 455.247C27.7855 460.177 35.6924 460.31 40.707 455.547C46.5379 450.008 54.1513 446.727 62.182 446.293L63.4067 446.226L65.2597 435.388C69.2573 412.005 68.4042 388.05 62.7535 365.01L60.0563 354.013L47.9932 355.506C27.8971 357.994 9.69745 368.606 -2.36549 384.87C-13.24 399.532 -11.8182 419.929 0.985191 432.941ZM-14.6391 417.063L-8.023 423.786L5.20916 437.233L11.5913 443.719C15.1447 447.331 15.1796 453.114 11.6699 456.768L-20.1151 489.858C-29.7836 467.847 -28.6651 442.591 -17.0887 421.521L-14.6391 417.063ZM191.127 483.889L160.965 492.232C154.299 494.076 147.385 490.238 145.424 483.605C143.144 475.893 138.191 469.245 131.453 464.854L130.426 464.184L134.24 453.871C142.47 431.622 155.186 411.303 171.599 394.175L179.434 386L189.134 393.325C205.294 405.527 215.75 423.817 218.064 443.934C220.151 462.069 208.721 479.023 191.127 483.889ZM212.597 477.95L203.506 480.465L185.323 485.495L176.553 487.921C171.67 489.271 168.748 494.262 169.96 499.181L180.942 543.731C200.321 529.503 211.98 507.072 212.489 483.036L212.597 477.95Z" stroke="#F0BB78" stroke-opacity="0.1" stroke-width="7" stroke-linejoin="round"/>
<path d="M383.917 70.9546L540.852 118.57L531.049 150.881L374.114 103.265L383.917 70.9546ZM383.917 70.9546L540.852 118.57L556.623 66.5937C556.632 66.5619 556.614 66.5283 556.583 66.5187L399.762 18.9379C399.73 18.9283 399.697 18.9462 399.687 18.978L383.917 70.9546ZM528.257 0.0737214C537.761 2.95721 543.134 12.9797 540.257 22.4596L540.606 21.0979L540.989 21.1105C554.524 30.7834 561.35 47.8938 557.187 64.5568L556.666 66.4206L556.658 66.4786C556.648 66.5104 556.614 66.5283 556.583 66.5187L400.093 19.0384C400.062 19.0288 400.044 18.9952 400.053 18.9634C400.061 18.9381 400.084 18.9207 400.111 18.9208L480.867 18.9834L505.238 19.6839C504.889 17.1903 505.063 14.584 505.842 12.0175C508.718 2.53765 518.754 -2.80977 528.257 0.0737214ZM517.841 34.4034C527.345 37.2868 537.381 31.9394 540.257 22.4596C543.134 12.9797 537.761 2.95721 528.257 0.0737214C518.754 -2.80977 508.718 2.53765 505.842 12.0175C502.965 21.4974 508.338 31.5199 517.841 34.4034Z" stroke="#F0BB78" stroke-opacity="0.1" stroke-width="7" stroke-linejoin="round"/>
<g clip-path="url(#clip3_54_30)">
<path d="M876.354 76.0523C887.759 80.1295 893.7 92.6803 889.622 104.085C885.545 115.49 872.994 121.431 861.589 117.353L828.368 210.281C826.33 215.983 820.054 218.953 814.352 216.915L711.099 180.002C705.397 177.964 702.426 171.688 704.465 165.986L737.686 73.0584C726.281 68.9812 720.341 56.4304 724.418 45.0254C728.495 33.6204 741.046 27.6801 752.451 31.7573L876.354 76.0523ZM859.404 123.466L893.56 147.094C902.098 153 904.232 164.709 898.326 173.247C892.421 181.785 880.711 183.919 872.173 178.013L871.855 177.785L823.916 247.091C820.861 251.508 814.804 252.612 810.387 249.557L731.691 195.123C728.604 192.987 727.136 189.385 727.574 185.902L814.352 216.915C820.054 218.953 826.33 215.983 828.368 210.281L859.404 123.466Z" stroke="#F0BB78" stroke-opacity="0.1" stroke-width="7" stroke-linejoin="round"/>
</g>
<path d="M1132.74 -31.5765L1137.93 -31.9527C1161.65 -33.6737 1185.26 -27.3472 1204.95 -13.995L1209.25 -11.0764C1221.42 -2.82181 1224.59 13.7351 1216.34 25.9045C1215.5 27.1399 1214.56 28.3026 1213.53 29.3804C1199.15 44.3822 1188.13 62.2713 1181.2 81.8594L1173.23 104.396C1149.31 109.092 1124.57 102.463 1106.21 86.4383L1110.57 62.9336C1114.36 42.5041 1113.76 21.5017 1108.81 1.32147C1105.31 -12.9601 1114.05 -27.3771 1128.33 -30.8799C1129.78 -31.2354 1131.25 -31.4685 1132.74 -31.5765ZM1045.98 64.9409L1067.93 87.2469C1072.79 92.1769 1080.69 92.3102 1085.71 87.5466C1091.54 82.0075 1099.15 78.7268 1107.18 78.2926L1108.41 78.2263L1110.26 67.3876C1114.26 44.0047 1113.4 20.0495 1107.75 -2.98983L1105.06 -13.987L1092.99 -12.4938C1072.9 -10.0063 1054.7 0.605886 1042.63 16.8703C1031.76 31.5322 1033.18 51.9293 1045.98 64.9409ZM1030.36 49.0626L1036.98 55.7862L1050.21 69.2335L1056.59 75.7193C1060.14 79.3306 1060.18 85.1137 1056.67 88.7675L1024.88 121.858C1015.22 99.847 1016.33 74.5913 1027.91 53.5212L1030.36 49.0626ZM1236.13 115.889L1205.97 124.232C1199.3 126.076 1192.38 122.238 1190.42 115.605C1188.14 107.893 1183.19 101.245 1176.45 96.8537L1175.43 96.184L1179.24 85.8709C1187.47 63.6219 1200.19 43.3027 1216.6 26.1754L1224.43 18.0001L1234.13 25.3248C1250.29 37.5272 1260.75 55.8174 1263.06 75.9342C1265.15 94.0691 1253.72 111.023 1236.13 115.889ZM1257.6 109.95L1248.51 112.465L1230.32 117.495L1221.55 119.921C1216.67 121.271 1213.75 126.262 1214.96 131.181L1225.94 175.731C1245.32 161.503 1256.98 139.072 1257.49 115.036L1257.6 109.95Z" stroke="#F0BB78" stroke-opacity="0.1" stroke-width="7" stroke-linejoin="round"/>
</g>
<defs>
<clipPath id="clip0_54_30">
<rect width="1440" height="758" fill="white"/>
</clipPath>
<clipPath id="clip1_54_30">
<rect width="321" height="321" fill="white" transform="translate(1216 403.615) rotate(-69.4708)"/>
</clipPath>
<clipPath id="clip2_54_30">
<rect width="380.762" height="380.762" fill="white" transform="translate(37 639.902) rotate(-36.0179)"/>
</clipPath>
<clipPath id="clip3_54_30">
<rect width="263.166" height="263.166" fill="white" transform="translate(715.59 -28) rotate(19.6718)"/>
</clipPath>
</defs>
</svg>
